<svg width="50" height="50" viewBox="0 0 50 50" fill="none" xmlns="http://www.w3.org/2000/svg">
<circle cx="25" cy="25" r="25" fill="#EAEAEA"/>
<g clip-path="url(#clip0_776_6459)">
<mask id="mask0_776_6459" style="mask-type:luminance" maskUnits="userSpaceOnUse" x="13" y="13" width="24" height="24">
<path d="M36.4294 13.5703H13.5723V36.4275H36.4294V13.5703Z" fill="white"/>
</mask>
<g mask="url(#mask0_776_6459)">
<path d="M13.5723 24.5409C13.5723 19.3711 13.5723 16.7862 15.1802 15.1782C16.7881 13.5703 19.3731 13.5703 24.5429 13.5703H25.4588C30.6286 13.5703 33.2135 13.5703 34.8215 15.1782C36.4294 16.7862 36.4294 19.3711 36.4294 24.5409V25.4568C36.4294 30.6267 36.4294 33.2116 34.8215 34.8195C33.2135 36.4275 30.6286 36.4275 25.4588 36.4275H24.5429C19.3731 36.4275 16.7881 36.4275 15.1802 34.8195C13.5723 33.2116 13.5723 30.6267 13.5723 25.4568V24.5409Z" fill="#FF7700"/>
<path d="M25.0012 24.9378C26.1206 24.9378 27.1281 24.49 27.8608 23.7573C28.5936 23.0246 29.0413 22.0069 29.0413 20.8976C29.0413 19.7782 28.5936 18.7707 27.8608 18.0379C27.1281 17.3052 26.1206 16.8574 25.0012 16.8574C23.8817 16.8574 22.8742 17.3052 22.1415 18.0379C21.4087 18.7707 20.9609 19.7782 20.9609 20.8976C20.9609 22.0171 21.4087 23.0246 22.1415 23.7573C22.8742 24.4799 23.8817 24.9378 25.0012 24.9378ZM23.7087 19.595C24.0445 19.2591 24.5025 19.0556 25.0012 19.0556C25.51 19.0556 25.9679 19.2591 26.2936 19.595C26.6294 19.9308 26.833 20.3888 26.833 20.8874C26.833 21.3861 26.6294 21.8542 26.2936 22.1799C25.9578 22.5157 25.4998 22.7193 25.0012 22.7193C24.4923 22.7193 24.0343 22.5157 23.7087 22.1799C23.3729 21.844 23.1693 21.3861 23.1693 20.8874C23.1693 20.3888 23.3729 19.9308 23.7087 19.595Z" fill="white"/>
<path d="M30.4357 26.5665L29.245 24.9484C29.1738 24.8568 29.0516 24.8466 28.9601 24.9178C27.8406 25.8745 26.4667 26.4851 24.9911 26.4851C23.5154 26.4851 22.1416 25.8643 21.0221 24.9178C20.9407 24.8466 20.8084 24.8568 20.7372 24.9484L19.5567 26.5665C19.4956 26.6479 19.516 26.7598 19.5872 26.8209C20.5845 27.6351 21.7447 28.1744 22.9557 28.4594L20.4522 32.8659C20.3912 32.988 20.4827 33.1407 20.6252 33.1407H23.0778C23.1491 33.1407 23.2203 33.1 23.2508 33.0288L25.0013 29.1209L26.7517 33.0288C26.7822 33.1 26.8535 33.1407 26.9247 33.1407H29.3773C29.5198 33.1407 29.6114 32.988 29.5401 32.8659L27.0366 28.4594C28.2477 28.1744 29.3977 27.6351 30.395 26.8209C30.4764 26.7598 30.4866 26.6479 30.4357 26.5665Z" fill="white"/>
</g>
</g>
<defs>
<clipPath id="clip0_776_6459">
<rect width="22.8571" height="22.8571" fill="white" transform="translate(13.5723 13.5703)"/>
</clipPath>
</defs>
</svg>
