<svg width="50" height="50" viewBox="0 0 50 50" fill="none" xmlns="http://www.w3.org/2000/svg">
<circle cx="25" cy="25" r="25" fill="#EAEAEA"/>
<g clip-path="url(#clip0_776_6469)">
<path fill-rule="evenodd" clip-rule="evenodd" d="M32.407 17.7896C32.6423 17.6905 32.8999 17.6564 33.153 17.6907C33.406 17.725 33.6452 17.8264 33.8457 17.9845C34.0462 18.1427 34.2007 18.3516 34.2931 18.5897C34.3854 18.8278 34.4122 19.0862 34.3708 19.3382L32.2108 32.4401C32.0013 33.7039 30.6146 34.4287 29.4556 33.7991C28.486 33.2725 27.046 32.461 25.7508 31.6144C25.1032 31.1906 23.1194 29.8334 23.3632 28.8677C23.5727 28.042 26.906 24.9391 28.8108 23.0944C29.5584 22.3696 29.2175 21.9515 28.3346 22.6182C26.1422 24.2734 22.6222 26.7906 21.4584 27.4991C20.4317 28.1239 19.8965 28.2306 19.2565 28.1239C18.0889 27.9296 17.006 27.6287 16.1222 27.262C14.9279 26.7667 14.986 25.1248 16.1213 24.6467L32.407 17.7896Z" fill="#2BACEF"/>
</g>
<defs>
<clipPath id="clip0_776_6469">
<rect width="22.8571" height="22.8571" fill="white" transform="translate(13.5713 13.5703)"/>
</clipPath>
</defs>
</svg>
