<svg width="50" height="50" viewBox="0 0 50 50" fill="none" xmlns="http://www.w3.org/2000/svg">
<circle cx="25" cy="25" r="25" fill="#EAEAEA"/>
<path d="M36.3153 32.5979H33.5986C32.5712 32.5979 32.2617 31.7658 30.42 29.9229C28.8105 28.3717 28.1307 28.1788 27.7236 28.1788C27.1605 28.1788 27.0069 28.3336 27.0069 29.1086V31.5515C27.0069 32.2122 26.7926 32.5991 25.0665 32.5991C23.3918 32.4866 21.7678 31.9778 20.3283 31.1147C18.8888 30.2517 17.6749 29.0589 16.7867 27.6348C14.6776 25.0098 13.2102 21.9289 12.501 18.6372C12.501 18.23 12.6557 17.861 13.4319 17.861H16.1462C16.8438 17.861 17.095 18.1717 17.3688 18.8896C18.6867 22.7681 20.9355 26.1419 21.8486 26.1419C22.1986 26.1419 22.351 25.9872 22.351 25.1146V21.1193C22.2355 19.2967 21.2676 19.1431 21.2676 18.4836C21.2799 18.3096 21.3595 18.1472 21.4895 18.031C21.6196 17.9147 21.7898 17.8537 21.9641 17.861H26.2307C26.8141 17.861 27.0069 18.1515 27.0069 18.8491V24.2419C27.0069 24.8241 27.2569 25.0169 27.4331 25.0169C27.7831 25.0169 28.0522 24.8241 28.6938 24.1836C30.0693 22.5062 31.193 20.6374 32.0295 18.636C32.1152 18.3957 32.2771 18.19 32.4905 18.0503C32.7039 17.9106 32.9572 17.8445 33.2117 17.8622H35.9272C36.7415 17.8622 36.9141 18.2693 36.7415 18.8503C35.7538 21.0627 34.5317 23.1628 33.0962 25.1146C32.8034 25.561 32.6867 25.7931 33.0962 26.3169C33.3653 26.7241 34.3176 27.5193 34.9569 28.2753C35.8879 29.2038 36.6605 30.2777 37.245 31.4538C37.4784 32.211 37.0903 32.5979 36.3153 32.5979Z" fill="#0077FF"/>
</svg>
